<?xml version="1.0" encoding="UTF-8"?>
<!DOCTYPE svg PUBLIC "-//W3C//DTD SVG 1.1//EN" "http://www.w3.org/Graphics/SVG/1.1/DTD/svg11.dtd">
<svg xmlns="http://www.w3.org/2000/svg" version="1.1" width="50px" height="50px" style="shape-rendering:geometricPrecision; text-rendering:geometricPrecision; image-rendering:optimizeQuality; fill-rule:evenodd; clip-rule:evenodd" xmlns:xlink="http://www.w3.org/1999/xlink">
<g><path style="opacity:0.907" fill="#fefffe" d="M 7.5,5.5 C 18.8333,5.5 30.1667,5.5 41.5,5.5C 41.0585,16.8572 40.2252,28.1906 39,39.5C 29.3333,44.8333 19.6667,44.8333 10,39.5C 8.77482,28.1906 7.94148,16.8572 7.5,5.5 Z M 15.5,13.5 C 21.5092,13.3338 27.5092,13.5005 33.5,14C 32.6896,19.7512 32.1896,25.5845 32,31.5C 27.8555,34.7719 23.3555,35.2719 18.5,33C 17.1387,31.4157 16.472,29.5824 16.5,27.5C 17.5,27.5 18.5,27.5 19.5,27.5C 19.3601,29.1238 20.0267,30.2904 21.5,31C 26.8952,32.8174 29.5618,30.984 29.5,25.5C 26.5,25.5 23.5,25.5 20.5,25.5C 20.5,24.1667 20.5,22.8333 20.5,21.5C 23.5,21.5 26.5,21.5 29.5,21.5C 29.5,20.1667 29.5,18.8333 29.5,17.5C 25.1161,17.8256 20.7828,17.4922 16.5,16.5C 15.8728,15.5832 15.5394,14.5832 15.5,13.5 Z"/></g>
</svg>
