<?xml version="1.0" encoding="UTF-8"?>
<!DOCTYPE svg PUBLIC "-//W3C//DTD SVG 1.1//EN" "http://www.w3.org/Graphics/SVG/1.1/DTD/svg11.dtd">
<svg xmlns="http://www.w3.org/2000/svg" version="1.1" width="50px" height="50px" style="shape-rendering:geometricPrecision; text-rendering:geometricPrecision; image-rendering:optimizeQuality; fill-rule:evenodd; clip-rule:evenodd" xmlns:xlink="http://www.w3.org/1999/xlink">
<g><path style="opacity:0.87" fill="#fefffe" d="M 17.5,4.5 C 37.1534,2.32088 45.9868,10.9876 44,30.5C 40.5894,31.2931 37.0894,31.7931 33.5,32C 32.1667,36 30.8333,40 29.5,44C 10.3433,45.5061 2.17665,36.6728 5,17.5C 7.35314,11.3154 11.5198,6.98203 17.5,4.5 Z M 22.5,8.5 C 25.5242,8.36419 27.0242,9.69752 27,12.5C 22.421,14.4183 20.921,13.085 22.5,8.5 Z M 13.5,12.5 C 17.1612,12.3501 18.1612,13.8501 16.5,17C 12.7071,17.4866 11.7071,15.9866 13.5,12.5 Z M 32.5,12.5 C 36.1612,12.3501 37.1612,13.8501 35.5,17C 31.7071,17.4866 30.7071,15.9866 32.5,12.5 Z M 10.5,21.5 C 12.4841,21.484 13.4841,22.484 13.5,24.5C 12.1373,28.362 10.4706,28.362 8.5,24.5C 9.19251,23.4822 9.85917,22.4822 10.5,21.5 Z M 36.5,21.5 C 41.1972,22.8743 41.5305,24.8743 37.5,27.5C 35.261,25.8669 34.9277,23.8669 36.5,21.5 Z M 21.5,33.5 C 27.0159,33.4734 28.3492,35.64 25.5,40C 20.5705,40.427 19.2372,38.2604 21.5,33.5 Z"/></g>
</svg>
