<?xml version="1.0" encoding="UTF-8"?>
<!DOCTYPE svg PUBLIC "-//W3C//DTD SVG 1.1//EN" "http://www.w3.org/Graphics/SVG/1.1/DTD/svg11.dtd">
<svg xmlns="http://www.w3.org/2000/svg" version="1.1" width="50px" height="50px" style="shape-rendering:geometricPrecision; text-rendering:geometricPrecision; image-rendering:optimizeQuality; fill-rule:evenodd; clip-rule:evenodd" xmlns:xlink="http://www.w3.org/1999/xlink">
<g><path style="opacity:0.821" fill="#fefffe" d="M 18.5,5.5 C 36.1551,3.98928 44.3217,11.9893 43,29.5C 41.1158,37.2217 36.2825,41.5551 28.5,42.5C 28.7839,39.2234 28.4505,36.0567 27.5,33C 30.9735,32.4117 33.4735,30.5784 35,27.5C 35.2632,23.1649 35.0965,18.8316 34.5,14.5C 27.8333,15.8333 21.1667,15.8333 14.5,14.5C 13.9035,18.8316 13.7368,23.1649 14,27.5C 15.5265,30.5784 18.0265,32.4117 21.5,33C 20.5008,35.7611 18.5008,37.0944 15.5,37C 17.1341,37.4935 18.8008,37.6602 20.5,37.5C 20.5,39.1667 20.5,40.8333 20.5,42.5C 10.261,40.7475 5.26101,34.5808 5.5,24C 5.7839,14.9161 10.1172,8.74947 18.5,5.5 Z"/></g>
</svg>
