<?xml version="1.0" encoding="UTF-8"?>
<!DOCTYPE svg PUBLIC "-//W3C//DTD SVG 1.1//EN" "http://www.w3.org/Graphics/SVG/1.1/DTD/svg11.dtd">
<svg xmlns="http://www.w3.org/2000/svg" version="1.1" width="50px" height="50px" style="shape-rendering:geometricPrecision; text-rendering:geometricPrecision; image-rendering:optimizeQuality; fill-rule:evenodd; clip-rule:evenodd" xmlns:xlink="http://www.w3.org/1999/xlink">
<g><path style="opacity:0.906" fill="#fefffe" d="M 8.5,6.5 C 19.8333,6.5 31.1667,6.5 42.5,6.5C 42.0585,17.8572 41.2252,29.1906 40,40.5C 30.3333,45.8333 20.6667,45.8333 11,40.5C 9.77482,29.1906 8.94148,17.8572 8.5,6.5 Z M 18.5,14.5 C 23.5,14.5 28.5,14.5 33.5,14.5C 33.5,16.5 33.5,18.5 33.5,20.5C 29.682,18.987 25.682,18.3204 21.5,18.5C 21.5,19.8333 21.5,21.1667 21.5,22.5C 25.5,22.5 29.5,22.5 33.5,22.5C 33.6054,26.5483 33.2721,30.5483 32.5,34.5C 27.8333,35.8333 23.1667,35.8333 18.5,34.5C 18.5792,33.0695 18.2458,31.7362 17.5,30.5C 18.325,29.6143 19.325,29.281 20.5,29.5C 20.5,30.5 20.5,31.5 20.5,32.5C 23.8333,32.5 27.1667,32.5 30.5,32.5C 30.5,30.5 30.5,28.5 30.5,26.5C 26.1667,26.5 21.8333,26.5 17.5,26.5C 18.0209,22.5191 18.3542,18.5191 18.5,14.5 Z"/></g>
</svg>
