<?xml version="1.0" encoding="UTF-8"?>
<!DOCTYPE svg PUBLIC "-//W3C//DTD SVG 1.1//EN" "http://www.w3.org/Graphics/SVG/1.1/DTD/svg11.dtd">
<svg xmlns="http://www.w3.org/2000/svg" version="1.1" width="50px" height="50px" style="shape-rendering:geometricPrecision; text-rendering:geometricPrecision; image-rendering:optimizeQuality; fill-rule:evenodd; clip-rule:evenodd" xmlns:xlink="http://www.w3.org/1999/xlink">
<g><path style="opacity:0.972" fill="#fefffe" d="M 5.5,3.5 C 18.1711,3.33345 30.8377,3.50012 43.5,4C 44,4.5 44.5,5 45,5.5C 45.6667,18.1667 45.6667,30.8333 45,43.5C 44.5,44 44,44.5 43.5,45C 30.8333,45.6667 18.1667,45.6667 5.5,45C 5,44.5 4.5,44 4,43.5C 3.33333,30.8333 3.33333,18.1667 4,5.5C 4.71719,4.9558 5.21719,4.28913 5.5,3.5 Z M 11.5,12.5 C 12.8333,12.5 14.1667,12.5 15.5,12.5C 15.5,13.5 15.5,14.5 15.5,15.5C 14.1667,15.5 12.8333,15.5 11.5,15.5C 11.5,14.5 11.5,13.5 11.5,12.5 Z M 10.5,19.5 C 12.5,19.5 14.5,19.5 16.5,19.5C 16.5,25.8333 16.5,32.1667 16.5,38.5C 14.5,38.5 12.5,38.5 10.5,38.5C 10.5,32.1667 10.5,25.8333 10.5,19.5 Z M 19.5,19.5 C 21.5,19.5 23.5,19.5 25.5,19.5C 25.3505,20.552 25.5172,21.552 26,22.5C 29.9434,19.6342 33.6101,19.9676 37,23.5C 38.1601,28.4342 38.6601,33.4342 38.5,38.5C 36.5,38.5 34.5,38.5 32.5,38.5C 32.6657,34.1539 32.499,29.8206 32,25.5C 30,22.8333 28,22.8333 26,25.5C 25.501,29.8206 25.3343,34.1539 25.5,38.5C 23.5,38.5 21.5,38.5 19.5,38.5C 19.5,32.1667 19.5,25.8333 19.5,19.5 Z"/></g>
</svg>
