<?xml version="1.0" encoding="UTF-8"?>
<!DOCTYPE svg PUBLIC "-//W3C//DTD SVG 1.1//EN" "http://www.w3.org/Graphics/SVG/1.1/DTD/svg11.dtd">
<svg xmlns="http://www.w3.org/2000/svg" version="1.1" width="50px" height="50px" style="shape-rendering:geometricPrecision; text-rendering:geometricPrecision; image-rendering:optimizeQuality; fill-rule:evenodd; clip-rule:evenodd" xmlns:xlink="http://www.w3.org/1999/xlink">
<g><path style="opacity:0.798" fill="#fefffe" d="M 8.5,13.5 C 12.5,13.5 16.5,13.5 20.5,13.5C 20.5,15.1667 20.5,16.8333 20.5,18.5C 17.1501,18.335 13.8168,18.5017 10.5,19C 6.7873,20.6912 5.62063,23.5245 7,27.5C 7.90252,28.7014 9.06919,29.5348 10.5,30C 13.8168,30.4983 17.1501,30.665 20.5,30.5C 20.5,32.1667 20.5,33.8333 20.5,35.5C 14.8948,36.0919 9.56143,35.2585 4.5,33C 1.60703,28.9752 0.773698,24.4752 2,19.5C 3.49363,16.6865 5.6603,14.6865 8.5,13.5 Z"/></g>
<g><path style="opacity:0.79" fill="#fefffe" d="M 28.5,13.5 C 34.1052,12.9081 39.4386,13.7415 44.5,16C 48.5,21.6667 48.5,27.3333 44.5,33C 39.4386,35.2585 34.1052,36.0919 28.5,35.5C 28.5,33.8333 28.5,32.1667 28.5,30.5C 32.9113,30.979 37.078,30.3124 41,28.5C 43.3637,24.4536 42.5304,21.2869 38.5,19C 35.1832,18.5017 31.8499,18.335 28.5,18.5C 28.5,16.8333 28.5,15.1667 28.5,13.5 Z"/></g>
<g><path style="opacity:0.657" fill="#fefffe" d="M 13.5,21.5 C 20.8333,21.5 28.1667,21.5 35.5,21.5C 35.5,23.5 35.5,25.5 35.5,27.5C 28.1667,27.5 20.8333,27.5 13.5,27.5C 13.5,25.5 13.5,23.5 13.5,21.5 Z"/></g>
</svg>
