<?xml version="1.0" encoding="UTF-8"?>
<!DOCTYPE svg PUBLIC "-//W3C//DTD SVG 1.1//EN" "http://www.w3.org/Graphics/SVG/1.1/DTD/svg11.dtd">
<svg xmlns="http://www.w3.org/2000/svg" version="1.1" width="50px" height="50px" style="shape-rendering:geometricPrecision; text-rendering:geometricPrecision; image-rendering:optimizeQuality; fill-rule:evenodd; clip-rule:evenodd" xmlns:xlink="http://www.w3.org/1999/xlink">
<g><path style="opacity:0.763" fill="#fefffe" d="M 35.5,3.5 C 41.9365,3.76905 45.1032,7.10238 45,13.5C 35.1667,23.3333 25.3333,33.1667 15.5,43C 12.1832,43.4983 8.8499,43.665 5.5,43.5C 5.33499,40.1501 5.50166,36.8168 6,33.5C 16.0355,23.6317 25.8688,13.6317 35.5,3.5 Z M 37.5,9.5 C 40.1247,10.4657 40.1247,11.4657 37.5,12.5C 36.4376,11.5754 36.4376,10.5754 37.5,9.5 Z M 31.5,15.5 C 32.2891,15.7828 32.9558,16.2828 33.5,17C 26.319,24.348 18.9857,31.5146 11.5,38.5C 10.479,37.9984 10.3123,37.3317 11,36.5C 18.0359,29.6315 24.8693,22.6315 31.5,15.5 Z"/></g>
</svg>
