<?xml version="1.0" encoding="UTF-8"?>
<!DOCTYPE svg PUBLIC "-//W3C//DTD SVG 1.1//EN" "http://www.w3.org/Graphics/SVG/1.1/DTD/svg11.dtd">
<svg xmlns="http://www.w3.org/2000/svg" version="1.1" width="50px" height="50px" style="shape-rendering:geometricPrecision; text-rendering:geometricPrecision; image-rendering:optimizeQuality; fill-rule:evenodd; clip-rule:evenodd" xmlns:xlink="http://www.w3.org/1999/xlink">
<g><path style="opacity:0.665" fill="#fefffe" d="M 49.5,29.5 C 49.5,31.5 49.5,33.5 49.5,35.5C 48.4246,36.5624 47.4246,36.5624 46.5,35.5C 47.7468,33.9579 47.7468,32.4579 46.5,31C 44.3225,29.7978 41.9892,29.2978 39.5,29.5C 39.822,31.7224 39.1554,33.5557 37.5,35C 33.5356,35.45 29.5356,36.2833 25.5,37.5C 25.5,36.5 25.5,35.5 25.5,34.5C 24.6364,35.6883 23.6364,36.8549 22.5,38C 21.451,38.4922 20.451,38.3256 19.5,37.5C 17.1049,40.1544 15.1049,39.8211 13.5,36.5C 11.4653,42.5508 7.46529,44.5508 1.5,42.5C 0.182345,40.0878 0.349012,37.7544 2,35.5C 3.92521,34.1196 5.75854,32.6196 7.5,31C 4.66927,28.9993 2.0026,26.8327 -0.5,24.5C -0.5,22.1667 -0.5,19.8333 -0.5,17.5C 7.4198,7.11523 17.5865,3.78189 30,7.5C 32.132,17.7269 27.7987,23.0602 17,23.5C 14.2261,23.695 12.0595,22.695 10.5,20.5C 14.4283,20.9187 18.4283,20.4187 22.5,19C 24.7744,17.2349 26.4411,15.0682 27.5,12.5C 27.3918,11.5581 27.0585,10.7247 26.5,10C 16.4142,9.04287 8.74758,12.8762 3.5,21.5C 5.26329,25.0525 7.92995,27.7191 11.5,29.5C 13.9676,28.1971 16.301,26.6971 18.5,25C 19.7932,24.51 21.1266,24.3433 22.5,24.5C 24.5058,29.9905 26.0058,29.6572 27,23.5C 28.4936,22.2528 29.9936,22.2528 31.5,23.5C 30.5721,24.7678 30.4054,26.1011 31,27.5C 32.22,24.6239 34.0534,22.2905 36.5,20.5C 37.2208,22.686 37.8875,24.8526 38.5,27C 42.5086,26.0843 46.1753,26.9177 49.5,29.5 Z M 19.5,28.5 C 19.5086,30.3084 19.0086,31.9751 18,33.5C 17.4014,31.4652 17.9014,29.7985 19.5,28.5 Z M 33.5,28.5 C 34.2389,28.369 34.9056,28.5357 35.5,29C 32.8521,33.8325 32.1854,33.6659 33.5,28.5 Z M 25.5,34.5 C 25.795,32.5767 26.6283,30.9101 28,29.5C 28.747,31.9278 27.9137,33.5944 25.5,34.5 Z M 9.5,33.5 C 10.4646,34.7211 10.298,36.0544 9,37.5C 7.86682,39.2112 6.36682,39.7112 4.5,39C 5.69237,36.6451 7.35904,34.8118 9.5,33.5 Z"/></g>
</svg>
