<?xml version="1.0" encoding="UTF-8"?>
<!DOCTYPE svg PUBLIC "-//W3C//DTD SVG 1.1//EN" "http://www.w3.org/Graphics/SVG/1.1/DTD/svg11.dtd">
<svg xmlns="http://www.w3.org/2000/svg" version="1.1" width="50px" height="50px" style="shape-rendering:geometricPrecision; text-rendering:geometricPrecision; image-rendering:optimizeQuality; fill-rule:evenodd; clip-rule:evenodd" xmlns:xlink="http://www.w3.org/1999/xlink">
<g><path style="opacity:0.885" fill="#fefffe" d="M 27.5,7.5 C 31.6804,7.18853 35.6804,7.8552 39.5,9.5C 41.2743,9.11319 42.941,8.44652 44.5,7.5C 44.8333,7.83333 45.1667,8.16667 45.5,8.5C 44.1667,9.83333 44.1667,11.1667 45.5,12.5C 44.5197,13.9814 43.353,15.3147 42,16.5C 40.1902,34.9702 30.0236,43.1368 11.5,41C 8.41188,40.4208 5.74521,39.0875 3.5,37C 7.03727,36.855 10.3706,36.0216 13.5,34.5C 10.8975,33.5649 8.89753,31.8982 7.5,29.5C 8.37598,28.7492 9.37598,28.2492 10.5,28C 5.73107,26.3492 4.73107,23.6825 7.5,20C 5.40013,16.6955 5.0668,13.1955 6.5,9.5C 10.0683,13.4489 14.4017,16.1156 19.5,17.5C 20.4419,17.3918 21.2753,17.0585 22,16.5C 22.3395,12.4704 24.1728,9.47037 27.5,7.5 Z"/></g>
</svg>
