<?xml version="1.0" encoding="UTF-8"?>
<!DOCTYPE svg PUBLIC "-//W3C//DTD SVG 1.1//EN" "http://www.w3.org/Graphics/SVG/1.1/DTD/svg11.dtd">
<svg xmlns="http://www.w3.org/2000/svg" version="1.1" width="50px" height="50px" style="shape-rendering:geometricPrecision; text-rendering:geometricPrecision; image-rendering:optimizeQuality; fill-rule:evenodd; clip-rule:evenodd" xmlns:xlink="http://www.w3.org/1999/xlink">
<g><path style="opacity:0.925" fill="#fefffe" d="M 17.5,5.5 C 26.209,5.81522 34.8756,6.64855 43.5,8C 44,8.5 44.5,9 45,9.5C 45.6667,15.5 45.6667,21.5 45,27.5C 44.2496,28.1258 43.4162,28.6258 42.5,29C 36.5,29.1667 30.5,29.3333 24.5,29.5C 17.7311,29.6294 11.0644,29.1294 4.5,28C 3.35797,21.9156 3.19131,15.7489 4,9.5C 4.5,9 5,8.5 5.5,8C 9.95581,8.10175 13.9558,7.26842 17.5,5.5 Z M 22.5,17.5 C 27.6511,17.6536 28.9845,19.8202 26.5,24C 21.1766,24.1802 19.8433,22.0136 22.5,17.5 Z"/></g>
<g><path style="opacity:0.918" fill="#fefffe" d="M 3.5,31.5 C 17.1668,32.8158 30.8334,32.8158 44.5,31.5C 46.0063,34.941 45.6729,38.1076 43.5,41C 30.8333,41.6667 18.1667,41.6667 5.5,41C 3.66019,38.1737 2.99353,35.0071 3.5,31.5 Z"/></g>
</svg>
