<?xml version="1.0" encoding="UTF-8"?>
<!DOCTYPE svg PUBLIC "-//W3C//DTD SVG 1.1//EN" "http://www.w3.org/Graphics/SVG/1.1/DTD/svg11.dtd">
<svg xmlns="http://www.w3.org/2000/svg" version="1.1" width="50px" height="50px" style="shape-rendering:geometricPrecision; text-rendering:geometricPrecision; image-rendering:optimizeQuality; fill-rule:evenodd; clip-rule:evenodd" xmlns:xlink="http://www.w3.org/1999/xlink">
<g><path style="opacity:0.823" fill="#fefffe" d="M 49.5,16.5 C 49.5,16.8333 49.5,17.1667 49.5,17.5C 41.3175,20.5605 32.9841,23.2272 24.5,25.5C 19.8935,24.6871 15.5602,23.1871 11.5,21C 13.0664,20.3918 14.3998,19.5585 15.5,18.5C 10.0006,18.9661 7.66729,21.6328 8.5,26.5C 7.8694,30.8038 7.3694,35.1371 7,39.5C 4.80641,42.9662 2.30641,43.2995 -0.5,40.5C -0.5,39.8333 -0.5,39.1667 -0.5,38.5C 2.81972,35.861 3.81972,32.5277 2.5,28.5C 3.20779,25.5422 4.20779,22.7088 5.5,20C 3.51153,19.0617 1.51153,18.2283 -0.5,17.5C -0.5,17.1667 -0.5,16.8333 -0.5,16.5C 7.54849,12.9264 15.8818,9.92642 24.5,7.5C 33.1182,9.92642 41.4515,12.9264 49.5,16.5 Z M 20.5,16.5 C 21.5268,15.1522 22.8602,14.6522 24.5,15C 23.4366,16.1882 22.1033,16.6882 20.5,16.5 Z M 20.5,16.5 C 19.2196,17.9313 17.5529,18.5979 15.5,18.5C 16.7804,17.0687 18.4471,16.4021 20.5,16.5 Z"/></g>
<g><path style="opacity:0.853" fill="#fefffe" d="M 8.5,26.5 C 8.31181,24.8967 8.81181,23.5634 10,22.5C 14.8404,24.0868 19.6738,25.7535 24.5,27.5C 29.5683,26.0328 34.5683,24.3661 39.5,22.5C 41.2616,26.866 40.5949,30.6993 37.5,34C 28.8333,37.3333 20.1667,37.3333 11.5,34C 10.6433,33.3109 9.97665,32.4776 9.5,31.5C 11.0093,29.38 10.676,27.7133 8.5,26.5 Z"/></g>
</svg>
