<?xml version="1.0" encoding="UTF-8"?>
<!DOCTYPE svg PUBLIC "-//W3C//DTD SVG 1.1//EN" "http://www.w3.org/Graphics/SVG/1.1/DTD/svg11.dtd">
<svg xmlns="http://www.w3.org/2000/svg" version="1.1" width="50px" height="50px" style="shape-rendering:geometricPrecision; text-rendering:geometricPrecision; image-rendering:optimizeQuality; fill-rule:evenodd; clip-rule:evenodd" xmlns:xlink="http://www.w3.org/1999/xlink">
<g><path style="opacity:0.754" fill="#fefffe" d="M 43.5,-0.5 C 44.8333,-0.5 46.1667,-0.5 47.5,-0.5C 48.2888,3.61611 46.9555,7.11611 43.5,10C 38.8333,11 34.1667,12 29.5,13C 27.9431,15.2955 26.2764,17.4622 24.5,19.5C 21.138,14.3239 22.4714,10.4906 28.5,8C 32.8701,7.08056 37.2034,6.08056 41.5,5C 42.8613,3.4157 43.528,1.58236 43.5,-0.5 Z"/></g>
<g><path style="opacity:0.87" fill="#fefffe" d="M 49.5,32.5 C 49.5,35.8333 49.5,39.1667 49.5,42.5C 47.55,46.9287 44.2167,48.4287 39.5,47C 29.5,35.6667 19.5,35.6667 9.5,47C 4.78334,48.4287 1.45001,46.9287 -0.5,42.5C -0.5,39.1667 -0.5,35.8333 -0.5,32.5C 1.06603,26.886 4.06603,22.0527 8.5,18C 9.87319,17.1251 11.3732,16.6251 13,16.5C 16.9201,18.2339 20.7535,20.2339 24.5,22.5C 27.8338,21.1686 30.8338,19.3353 33.5,17C 38.4821,16.2395 42.3154,18.0728 45,22.5C 46.8298,25.8153 48.3298,29.1486 49.5,32.5 Z M 11.5,24.5 C 12.5,24.5 13.5,24.5 14.5,24.5C 14.5,25.8333 14.5,27.1667 14.5,28.5C 15.8333,28.5 17.1667,28.5 18.5,28.5C 18.5,29.5 18.5,30.5 18.5,31.5C 17.1667,31.5 15.8333,31.5 14.5,31.5C 14.5,32.8333 14.5,34.1667 14.5,35.5C 13.5,35.5 12.5,35.5 11.5,35.5C 11.5,34.1667 11.5,32.8333 11.5,31.5C 10.1667,31.5 8.83333,31.5 7.5,31.5C 7.5,30.5 7.5,29.5 7.5,28.5C 8.83333,28.5 10.1667,28.5 11.5,28.5C 11.5,27.1667 11.5,25.8333 11.5,24.5 Z M 35.5,24.5 C 37.9701,25.3603 38.1368,26.6936 36,28.5C 34.2317,27.3181 34.0651,25.9848 35.5,24.5 Z M 30.5,28.5 C 31.5,28.5 32.5,28.5 33.5,28.5C 32.5,33.8333 31.5,33.8333 30.5,28.5 Z M 38.5,28.5 C 39.5,28.5 40.5,28.5 41.5,28.5C 40.5,33.8333 39.5,33.8333 38.5,28.5 Z M 34.5,32.5 C 35.5,32.5 36.5,32.5 37.5,32.5C 37.5,33.5 37.5,34.5 37.5,35.5C 36.5,35.5 35.5,35.5 34.5,35.5C 34.5,34.5 34.5,33.5 34.5,32.5 Z"/></g>
</svg>
