<?xml version="1.0" encoding="UTF-8"?>
<!DOCTYPE svg PUBLIC "-//W3C//DTD SVG 1.1//EN" "http://www.w3.org/Graphics/SVG/1.1/DTD/svg11.dtd">
<svg xmlns="http://www.w3.org/2000/svg" version="1.1" width="50px" height="50px" style="shape-rendering:geometricPrecision; text-rendering:geometricPrecision; image-rendering:optimizeQuality; fill-rule:evenodd; clip-rule:evenodd" xmlns:xlink="http://www.w3.org/1999/xlink">
<g><path style="opacity:0.928" fill="#fefffe" d="M 3.5,1.5 C 17.5,1.5 31.5,1.5 45.5,1.5C 44.389,15.1653 43.2223,28.8319 42,42.5C 36.3812,44.8635 30.5479,46.5302 24.5,47.5C 18.4521,46.5302 12.6188,44.8635 7,42.5C 5.77767,28.8319 4.61101,15.1653 3.5,1.5 Z M 18.5,10.5 C 19.8333,10.5 21.1667,10.5 22.5,10.5C 22.5,18.8333 22.5,27.1667 22.5,35.5C 18.8641,34.6745 15.1974,34.0078 11.5,33.5C 11.5,32.1667 11.5,30.8333 11.5,29.5C 13.8056,29.9926 16.139,30.3259 18.5,30.5C 18.5,23.8333 18.5,17.1667 18.5,10.5 Z M 26.5,10.5 C 30.1667,10.5 33.8333,10.5 37.5,10.5C 37.5,11.8333 37.5,13.1667 37.5,14.5C 35.1667,14.5 32.8333,14.5 30.5,14.5C 30.5,17.1667 30.5,19.8333 30.5,22.5C 32.5,22.5 34.5,22.5 36.5,22.5C 36.5,26.1667 36.5,29.8333 36.5,33.5C 33.1667,34.1667 29.8333,34.8333 26.5,35.5C 26.281,34.325 26.6143,33.325 27.5,32.5C 30.4743,32.146 32.4743,30.646 33.5,28C 33.1667,27.1667 32.8333,26.3333 32.5,25.5C 30.5914,26.3482 28.5914,26.6816 26.5,26.5C 26.5,21.1667 26.5,15.8333 26.5,10.5 Z"/></g>
</svg>
