<?xml version="1.0" encoding="UTF-8"?>
<!DOCTYPE svg PUBLIC "-//W3C//DTD SVG 1.1//EN" "http://www.w3.org/Graphics/SVG/1.1/DTD/svg11.dtd">
<svg xmlns="http://www.w3.org/2000/svg" version="1.1" width="50px" height="50px" style="shape-rendering:geometricPrecision; text-rendering:geometricPrecision; image-rendering:optimizeQuality; fill-rule:evenodd; clip-rule:evenodd" xmlns:xlink="http://www.w3.org/1999/xlink">
<g><path style="opacity:0.733" fill="#fefffe" d="M 20.5,0.5 C 34.8164,-0.349324 41.6497,6.31734 41,20.5C 38.2241,25.7541 35.7241,31.0874 33.5,36.5C 29.5,36.5 25.5,36.5 21.5,36.5C 22.9216,30.154 21.7549,24.154 18,18.5C 17.2195,17.0563 17.3861,15.723 18.5,14.5C 22.5,13.1667 26.5,13.1667 30.5,14.5C 31.6139,15.723 31.7805,17.0563 31,18.5C 30,20.1667 29,21.8333 28,23.5C 26.0768,21.8812 25.5768,20.0479 26.5,18C 25.1667,17.3333 23.8333,17.3333 22.5,18C 25.1132,21.8454 26.9466,26.0121 28,30.5C 34.9585,25.2864 37.2919,18.6197 35,10.5C 30.1959,4.20585 24.3626,3.03918 17.5,7C 13.2106,10.5349 11.7106,15.0349 13,20.5C 14.746,24.3267 16.746,27.9934 19,31.5C 19.4935,33.1341 19.6602,34.8008 19.5,36.5C 18.1667,36.5 16.8333,36.5 15.5,36.5C 13.611,31.0551 11.4443,25.7217 9,20.5C 7.42759,10.6372 11.2609,3.97055 20.5,0.5 Z"/></g>
<g><path style="opacity:0.779" fill="#fefffe" d="M 16.5,37.5 C 21.8333,37.5 27.1667,37.5 32.5,37.5C 34.3921,44.5968 31.7254,48.2634 24.5,48.5C 17.2746,48.2634 14.6079,44.5968 16.5,37.5 Z"/></g>
</svg>
