<?xml version="1.0" encoding="UTF-8"?>
<!DOCTYPE svg PUBLIC "-//W3C//DTD SVG 1.1//EN" "http://www.w3.org/Graphics/SVG/1.1/DTD/svg11.dtd">
<svg xmlns="http://www.w3.org/2000/svg" version="1.1" width="50px" height="50px" style="shape-rendering:geometricPrecision; text-rendering:geometricPrecision; image-rendering:optimizeQuality; fill-rule:evenodd; clip-rule:evenodd" xmlns:xlink="http://www.w3.org/1999/xlink">
<g><path style="opacity:0.905" fill="#fefffe" d="M 22.5,-0.5 C 23.8333,-0.5 25.1667,-0.5 26.5,-0.5C 26.2471,1.82733 26.9137,3.82733 28.5,5.5C 32.9091,7.45322 37.0758,9.78655 41,12.5C 41.6667,17.5 41.6667,22.5 41,27.5C 40.2825,28.4506 39.4491,28.6172 38.5,28C 35.9161,24.0319 32.2495,21.5319 27.5,20.5C 26.6685,28.1451 26.1685,35.8117 26,43.5C 24.6403,46.0226 22.807,48.0226 20.5,49.5C 17.8333,49.5 15.1667,49.5 12.5,49.5C 7.22953,46.5814 6.06286,42.248 9,36.5C 13.0824,33.3845 17.5824,32.3845 22.5,33.5C 22.5,22.1667 22.5,10.8333 22.5,-0.5 Z"/></g>
</svg>
