<?xml version="1.0" encoding="UTF-8"?>
<!DOCTYPE svg PUBLIC "-//W3C//DTD SVG 1.1//EN" "http://www.w3.org/Graphics/SVG/1.1/DTD/svg11.dtd">
<svg xmlns="http://www.w3.org/2000/svg" version="1.1" width="50px" height="50px" style="shape-rendering:geometricPrecision; text-rendering:geometricPrecision; image-rendering:optimizeQuality; fill-rule:evenodd; clip-rule:evenodd" xmlns:xlink="http://www.w3.org/1999/xlink">
<g><path style="opacity:0.689" fill="#fefffe" d="M 22.5,3.5 C 29.7287,5.86355 36.562,9.19689 43,13.5C 43.8313,20.856 43.6646,28.1893 42.5,35.5C 37.0361,38.4676 31.7028,41.6342 26.5,45C 22.554,45.3656 19.2207,44.0323 16.5,41C 19.2618,38.9814 21.9285,39.148 24.5,41.5C 29.585,38.8758 34.4183,35.8758 39,32.5C 39.8299,26.8041 39.6632,21.1375 38.5,15.5C 33.8333,12.8333 29.1667,10.1667 24.5,7.5C 19.8333,10.1667 15.1667,12.8333 10.5,15.5C 9.33676,21.1375 9.17009,26.8041 10,32.5C 11.6845,34.7007 13.6845,35.3673 16,34.5C 16.4995,28.5092 16.6662,22.5092 16.5,16.5C 17.8333,16.5 19.1667,16.5 20.5,16.5C 20.5,20.1667 20.5,23.8333 20.5,27.5C 23.3338,28.5034 26.1671,29.5034 29,30.5C 30.728,30.5463 32.228,30.0463 33.5,29C 29.5907,27.6228 25.7573,26.1228 22,24.5C 20.3514,18.4773 22.6847,15.8106 29,16.5C 32.9689,15.8891 35.4689,17.3891 36.5,21C 36.2451,22.3261 35.5784,23.3261 34.5,24C 38.0846,26.5281 38.418,29.5281 35.5,33C 31.1949,34.9234 26.8616,34.9234 22.5,33C 21.8742,32.2496 21.3742,31.4162 21,30.5C 19.2036,40.3324 14.3703,41.999 6.5,35.5C 5.33539,28.1893 5.16872,20.856 6,13.5C 11.6468,10.2666 17.1468,6.93329 22.5,3.5 Z M 27.5,19.5 C 30.1113,19.6456 32.1113,20.8123 33.5,23C 30.688,23.4657 28.0213,22.9657 25.5,21.5C 26.2427,20.8182 26.9094,20.1515 27.5,19.5 Z"/></g>
</svg>
