<?xml version="1.0" encoding="UTF-8"?>
<!DOCTYPE svg PUBLIC "-//W3C//DTD SVG 1.1//EN" "http://www.w3.org/Graphics/SVG/1.1/DTD/svg11.dtd">
<svg xmlns="http://www.w3.org/2000/svg" version="1.1" width="50px" height="50px" style="shape-rendering:geometricPrecision; text-rendering:geometricPrecision; image-rendering:optimizeQuality; fill-rule:evenodd; clip-rule:evenodd" xmlns:xlink="http://www.w3.org/1999/xlink">
<g><path style="opacity:0.792" fill="#fefffe" d="M 15.5,6.5 C 23.8333,6.5 32.1667,6.5 40.5,6.5C 40.5,8.83333 40.5,11.1667 40.5,13.5C 38.1667,13.5 35.8333,13.5 33.5,13.5C 32.4611,19.7967 32.2944,26.1301 33,32.5C 36.3092,33.6761 37.8092,32.3428 37.5,28.5C 38.5,28.5 39.5,28.5 40.5,28.5C 40.6129,32.3268 39.6129,35.8268 37.5,39C 30.8517,42.3338 26.8517,40.3338 25.5,33C 26.5951,26.5493 27.2617,20.0493 27.5,13.5C 25.5328,13.2606 23.6995,13.5939 22,14.5C 21.7019,22.9324 20.2019,31.0991 17.5,39C 13.1539,41.5056 10.1539,40.5056 8.5,36C 10.6837,32.9462 12.8503,29.7795 15,26.5C 16.1566,22.2177 16.9899,17.8843 17.5,13.5C 13.3161,13.174 10.1495,14.8407 8,18.5C 7.5,18.1667 7,17.8333 6.5,17.5C 7.44228,11.8491 10.4423,8.18239 15.5,6.5 Z"/></g>
</svg>
