<?xml version="1.0" encoding="UTF-8"?>
<!DOCTYPE svg PUBLIC "-//W3C//DTD SVG 1.1//EN" "http://www.w3.org/Graphics/SVG/1.1/DTD/svg11.dtd">
<svg xmlns="http://www.w3.org/2000/svg" version="1.1" width="50px" height="50px" style="shape-rendering:geometricPrecision; text-rendering:geometricPrecision; image-rendering:optimizeQuality; fill-rule:evenodd; clip-rule:evenodd" xmlns:xlink="http://www.w3.org/1999/xlink">
<g><path style="opacity:0.785" fill="#fefffe" d="M 13.5,4.5 C 17.3479,4.23971 21.0145,4.90637 24.5,6.5C 34.8638,1.68448 40.1972,5.01781 40.5,16.5C 46.0232,18.2986 47.8566,21.9653 46,27.5C 44.9667,30.0327 43.1334,31.6994 40.5,32.5C 40.1972,43.9822 34.8638,47.3155 24.5,42.5C 14.1362,47.3155 8.80283,43.9822 8.5,32.5C 2.87727,30.3352 1.04394,26.3352 3,20.5C 4.41326,18.5864 6.2466,17.2531 8.5,16.5C 8.71996,11.7805 10.3866,7.78048 13.5,4.5 Z M 15.5,8.5 C 17.6648,8.11589 19.3315,8.78256 20.5,10.5C 19.1473,12.7379 17.1473,14.0713 14.5,14.5C 13.2302,12.2432 13.5636,10.2432 15.5,8.5 Z M 29.5,8.5 C 34.2196,8.20605 35.8863,10.206 34.5,14.5C 32.3855,13.9661 30.5522,12.9661 29,11.5C 28.5304,10.4232 28.6971,9.42317 29.5,8.5 Z M 20.5,17.5 C 26.9237,15.7884 30.9237,18.1218 32.5,24.5C 30.0376,31.7021 25.5376,33.3688 19,29.5C 15.9588,25.1819 16.4588,21.1819 20.5,17.5 Z M 9.5,20.5 C 11.9244,22.9203 12.0911,25.587 10,28.5C 5.53578,26.008 5.36912,23.3414 9.5,20.5 Z M 38.5,20.5 C 43.5861,22.8476 43.7528,25.5142 39,28.5C 37.1865,25.9218 37.0198,23.2551 38.5,20.5 Z M 23.5,23.5 C 25.337,23.6395 25.6704,24.3061 24.5,25.5C 23.7025,25.0431 23.3691,24.3764 23.5,23.5 Z M 13.5,34.5 C 16.5132,34.7196 18.8466,36.0529 20.5,38.5C 15.874,41.5684 13.5407,40.2351 13.5,34.5 Z M 33.5,34.5 C 36.2251,36.9514 35.7251,38.9514 32,40.5C 29.8676,40.3232 28.8676,39.3232 29,37.5C 30.4087,36.2189 31.9087,35.2189 33.5,34.5 Z"/></g>
<g><path style="opacity:0.71" fill="#fefffe" d="M 21.5,19.5 C 29.4863,18.998 31.4863,22.1647 27.5,29C 19.424,29.8047 17.424,26.638 21.5,19.5 Z M 23.5,23.5 C 23.3691,24.3764 23.7025,25.0431 24.5,25.5C 25.6704,24.3061 25.337,23.6395 23.5,23.5 Z"/></g>
</svg>
