<?xml version="1.0" encoding="UTF-8"?>
<!DOCTYPE svg PUBLIC "-//W3C//DTD SVG 1.1//EN" "http://www.w3.org/Graphics/SVG/1.1/DTD/svg11.dtd">
<svg xmlns="http://www.w3.org/2000/svg" version="1.1" width="50px" height="50px" style="shape-rendering:geometricPrecision; text-rendering:geometricPrecision; image-rendering:optimizeQuality; fill-rule:evenodd; clip-rule:evenodd" xmlns:xlink="http://www.w3.org/1999/xlink">
<g><path style="opacity:0.966" fill="#fefffe" d="M 3.5,3.5 C 17.5,3.5 31.5,3.5 45.5,3.5C 45.5,17.5 45.5,31.5 45.5,45.5C 31.5,45.5 17.5,45.5 3.5,45.5C 3.5,31.5 3.5,17.5 3.5,3.5 Z M 14.5,22.5 C 19.1667,22.5 23.8333,22.5 28.5,22.5C 28.5,23.5 28.5,24.5 28.5,25.5C 26.8333,25.5 25.1667,25.5 23.5,25.5C 23.5,30.8333 23.5,36.1667 23.5,41.5C 22.1667,41.5 20.8333,41.5 19.5,41.5C 19.5,36.1667 19.5,30.8333 19.5,25.5C 17.8333,25.5 16.1667,25.5 14.5,25.5C 14.5,24.5 14.5,23.5 14.5,22.5 Z M 35.5,22.5 C 41.7262,24.6077 41.0595,25.6077 33.5,25.5C 33.0502,29.224 34.7168,31.3907 38.5,32C 41.1667,34.6667 41.1667,37.3333 38.5,40C 35.854,40.4974 33.1873,40.6641 30.5,40.5C 30.3505,39.448 30.5172,38.448 31,37.5C 33.0408,38.4231 35.2075,38.7564 37.5,38.5C 37.6567,37.1266 37.49,35.7932 37,34.5C 33.2213,33.5535 31.0546,31.2201 30.5,27.5C 30.8333,26.5 31.1667,25.5 31.5,24.5C 33.0255,24.0057 34.3588,23.339 35.5,22.5 Z"/></g>
</svg>
